<svg width="24" height="24" viewBox="0 0 24 24" fill="none" xmlns="http://www.w3.org/2000/svg">
<path d="M7.10855 15.475H4.44408C4.19895 15.475 4 15.674 4 15.9191V20.3066C4 20.5517 4.19895 20.7507 4.44408 20.7507H7.10855C7.35368 20.7507 7.55262 20.5517 7.55262 20.3066V15.9191C7.55262 15.6731 7.35456 15.475 7.10855 15.475ZM6.66447 19.8625H4.88816V16.3632H6.66447V19.8625Z" fill="currentColor"/>
<path d="M19.9593 16.3481C19.7461 15.6367 18.5747 14.546 17.8437 14.546C17.698 14.546 17.5666 14.5815 17.452 14.6517L13.2004 17.2513H11.9934V15.9191C11.9934 15.674 11.7945 15.475 11.5493 15.475H8.88487C8.63974 15.475 8.4408 15.674 8.4408 15.9191V20.3066C8.4408 20.5517 8.63974 20.7507 8.88487 20.7507H14.1312C14.2183 20.7507 14.3026 20.7258 14.3746 20.6778L19.7035 17.1785C19.9673 17.0053 20.0623 16.6954 19.9593 16.3481ZM13.9989 19.8625H9.32895V16.3632H11.1053V17.6954C11.1053 17.9406 11.3042 18.1395 11.5493 18.1395H13.3257C13.4074 18.1395 13.4873 18.1173 13.5575 18.0747L17.8437 15.4342C18.1315 15.4386 18.9166 16.15 19.0827 16.5239L13.9989 19.8625Z" fill="currentColor"/>
<path d="M10.6612 9.21708C10.416 9.21708 10.2171 9.41603 10.2171 9.66116C10.2171 9.90629 10.416 10.1052 10.6612 10.1052H12.8816V12.3256C12.8816 12.5708 13.0805 12.7697 13.3256 12.7697C13.5708 12.7697 13.7697 12.5708 13.7697 12.3256V10.1052H15.9901C16.2352 10.1052 16.4342 9.90629 16.4342 9.66116C16.4342 9.41603 16.2352 9.21708 15.9901 9.21708H13.7697V6.99669C13.7697 6.75156 13.5708 6.55261 13.3256 6.55261C13.0805 6.55261 12.8816 6.75156 12.8816 6.99669V9.21708H10.6612Z" fill="currentColor"/>
<path d="M15.9901 5.66447H17.3223V6.9967C17.3223 7.24183 17.5213 7.44078 17.7664 7.44078C18.0115 7.44078 18.2105 7.24183 18.2105 6.9967V5.66447H19.5427C19.7879 5.66447 19.9868 5.46552 19.9868 5.22039C19.9868 4.97526 19.7879 4.77631 19.5427 4.77631H18.2105V3.44408C18.2105 3.19895 18.0115 3 17.7664 3C17.5213 3 17.3223 3.19895 17.3223 3.44408V4.77631H15.9901C15.745 4.77631 15.546 4.97526 15.546 5.22039C15.546 5.46552 15.745 5.66447 15.9901 5.66447Z" fill="currentColor"/>
<path d="M8.88487 5.66446H9.32895V6.10854C9.32895 6.35367 9.5279 6.55262 9.77303 6.55262C10.0182 6.55262 10.2171 6.35367 10.2171 6.10854V5.66446H10.6612C10.9063 5.66446 11.1053 5.46552 11.1053 5.22039C11.1053 4.97526 10.9063 4.77631 10.6612 4.77631H10.2171V4.33223C10.2171 4.0871 10.0182 3.88815 9.77303 3.88815C9.5279 3.88815 9.32895 4.0871 9.32895 4.33223V4.77631H8.88487C8.63974 4.77631 8.4408 4.97526 8.4408 5.22039C8.4408 5.46552 8.63974 5.66446 8.88487 5.66446Z" fill="currentColor"/>
</svg>
