<svg width="24" height="24" viewBox="0 0 24 24" fill="none" xmlns="http://www.w3.org/2000/svg">
<path d="M8.34918 12.2925V11.1479C6.41274 10.9507 4.84269 10.2753 4 9.35288V9.59178C4 10.8869 5.84892 12.0225 8.34918 12.2925ZM8.34918 12.974C6.41469 12.7786 4.84486 12.0994 4 11.177V11.4181C4 12.7149 5.84892 13.8484 8.34918 14.1214V13.5785H8.35309C8.35114 13.5426 8.34918 13.5088 8.34918 13.4729V12.974ZM14.5132 16.9175C12.0905 16.9175 10.0391 16.1743 9.02637 15.0666V15.3016C9.02637 16.802 11.5386 18.0669 14.5132 18.0669C17.4878 18.0669 20 16.802 20 15.3016V15.0666C18.9857 16.1743 16.9337 16.9175 14.5132 16.9175ZM14.5132 15.0886C12.0905 15.0886 10.0391 14.3475 9.02637 13.2399V13.4749C9.02637 14.9735 11.5386 16.2401 14.5132 16.2401C17.4878 16.2401 20 14.973 20 13.4749V13.2399C18.9857 14.3475 16.9337 15.0886 14.5132 15.0886ZM14.5132 13.2616C12.0905 13.2616 10.0391 12.5186 9.02637 11.4109V11.6479C9.02637 13.1465 11.5386 14.4112 14.5132 14.4112C17.4878 14.4112 20 13.1461 20 11.6479V11.4109C18.9857 12.5186 16.9337 13.2616 14.5132 13.2616ZM14.5132 11.4348C12.0905 11.4348 10.0391 10.6916 9.02637 9.58396V9.81918C9.02637 11.3178 11.5386 12.5844 14.5132 12.5844C17.4878 12.5844 20 11.3173 20 9.81918V9.58396C18.9857 10.6916 16.9337 11.4348 14.5132 11.4348ZM9.02637 7.9922C9.02637 9.49079 11.5386 10.7574 14.5132 10.7574C17.4878 10.7574 20 9.49079 20 7.9922C20 6.4936 17.4856 5.22696 14.5132 5.22696C11.5408 5.22696 9.02637 6.4936 9.02637 7.9922ZM8.34918 7.9922C8.34918 6.77899 9.41688 5.73344 11.0686 5.12141C10.5452 5.04031 10.0163 4.99973 9.4866 5C6.51221 5 4 6.2649 4 7.76306C4 9.04208 5.8828 10.1936 8.34918 10.4666V9.91865H8.35309C8.35114 9.88477 8.34918 9.85349 8.34918 9.81918V7.9922Z" fill="currentColor"/>
</svg>
