<svg width="24" height="24" viewBox="0 0 24 24" fill="none" xmlns="http://www.w3.org/2000/svg">
<path d="M15.0828 17.3797V18.0872H5.06112V6.06112H15.0828V11.9731L16.1439 10.7941V5.82532C16.1439 5.37055 15.7734 5 15.3018 5H4.84216C4.38739 5 4 5.37055 4 5.82532V18.2893C4 18.7609 4.38739 19.1314 4.84216 19.1314H15.3186C15.7902 19.1314 16.1608 18.7609 16.1608 18.2893V16.3692L15.4871 17.1271C15.3692 17.2282 15.2344 17.3292 15.0828 17.3797Z" fill="currentColor"/>
<path d="M7.11601 8.77283H13.0448C13.348 8.77283 13.5838 8.53703 13.5838 8.23385C13.5838 7.94752 13.348 7.69487 13.0448 7.69487H7.11601C6.81283 7.69487 6.57703 7.94752 6.57703 8.23385C6.57703 8.53703 6.81283 8.77283 7.11601 8.77283Z" fill="currentColor"/>
<path d="M7.11601 11.333H13.0448C13.348 11.333 13.5838 11.0972 13.5838 10.7941C13.5838 10.4909 13.348 10.2551 13.0448 10.2551H7.11601C6.81283 10.2551 6.57703 10.4909 6.57703 10.7941C6.57703 11.0972 6.81283 11.333 7.11601 11.333Z" fill="currentColor"/>
<path d="M13.5669 13.3542C13.5669 13.051 13.3311 12.8152 13.028 12.8152H7.11601C6.81283 12.8152 6.57703 13.051 6.57703 13.3542C6.57703 13.6405 6.81283 13.8931 7.11601 13.8931H13.0448C13.3311 13.8931 13.5669 13.6405 13.5669 13.3542Z" fill="currentColor"/>
<path d="M6.57703 15.8975C6.57703 16.2007 6.81283 16.4365 7.11601 16.4365H12.2195L12.4048 15.3754H7.11601C6.81283 15.3754 6.57703 15.6112 6.57703 15.8975Z" fill="currentColor"/>
<path d="M13.4322 16.9924L14.7122 16.6218C14.7628 16.605 14.8133 16.5713 14.847 16.5376L15.2175 16.1334L13.7185 14.7859L13.3479 15.207C13.3143 15.2575 13.2806 15.308 13.2806 15.3586L13.0616 16.6723C13.0111 16.8745 13.2132 17.0597 13.4322 16.9924Z" fill="currentColor"/>
<path d="M17.3343 10.7462L14.1755 14.2708L15.6807 15.6198L18.8395 12.0951L17.3343 10.7462Z" fill="currentColor"/>
<path d="M19.9 10.4403L18.8557 9.4971C18.7378 9.37919 18.5357 9.39604 18.4346 9.51394L17.8114 10.2214L19.3104 11.5688L19.9336 10.8614C20.0347 10.7435 20.0179 10.5582 19.9 10.4403Z" fill="currentColor"/>
</svg>
