<svg width="50" height="68" viewBox="0 0 50 68" fill="none" xmlns="http://www.w3.org/2000/svg">
<path d="M18.5 38.25C28.2822 38.25 36.2188 29.6836 36.2188 19.125C36.2188 8.56641 28.2822 0 18.5 0C8.71777 0 0.78125 8.56641 0.78125 19.125C0.78125 29.6836 8.71777 38.25 18.5 38.25ZM34.25 42.5H27.4701C24.7385 43.8547 21.6992 44.625 18.5 44.625C15.3008 44.625 12.2738 43.8547 9.52988 42.5H2.75C-5.94941 42.5 -13 50.1102 -13 59.5V61.625C-13 65.1445 -10.3545 68 -7.09375 68H44.0938C47.3545 68 50 65.1445 50 61.625V59.5C50 50.1102 42.9494 42.5 34.25 42.5Z" fill="#E9F1FB"/>
</svg>
