<svg width="217" height="137" viewBox="0 0 217 137" fill="none" xmlns="http://www.w3.org/2000/svg">
<g clip-path="url(#clip0_53_400)">
<path d="M154.529 115.93H50.2214C22.5764 109.8 2.32887e-05 88.6857 2.32887e-05 57.1106C-0.00399401 52.3343 0.511739 47.5718 1.53809 42.9074L85.615 29.3465L150.475 18.8859C155.135 21.9381 159.569 25.3223 163.743 29.0123L101.659 52.7258L72.3715 63.9132L105.262 55.7275L173.528 38.7381C177.675 43.3792 181.444 48.3456 184.799 53.5895L164.155 69.0449L187.479 57.9904C187.578 58.1608 187.676 58.3315 187.774 58.5025C202.408 84.0731 183.962 115.93 154.529 115.93Z" fill="#A7BFDD"/>
<path d="M137.861 11.7088C122.072 14.9742 102.66 19.1013 82.7017 23.3914C53.8443 29.5961 23.845 36.1451 2.0045 40.9325L2.019 40.8758C2.955 37.2921 4.8888 34.0486 7.59506 31.5232C24.1557 15.8976 44.9516 5.51072 67.3793 1.6629H67.3813C73.8784 0.55376 80.4576 -0.00253191 87.0485 -6.93127e-06C104.656 -0.0248786 122.036 3.98003 137.861 11.7088Z" fill="#A7BFDD"/>
<path d="M112.394 11.8148V118.736H217V11.8148H112.394ZM207.337 87.2888H122.299V21.0072H207.337V87.2888Z" fill="#144480"/>
<path d="M170.223 39.6886C167.644 35.3255 162.542 35.1221 162.542 35.1221C162.542 35.1221 157.57 34.4855 154.381 41.1307C151.409 47.3245 147.306 53.3048 153.721 54.7547L154.879 51.1436L155.597 55.0236C156.51 55.0894 157.427 55.105 158.342 55.0706C165.211 54.8485 171.754 55.1355 171.543 52.6671C171.263 49.3858 172.704 43.8869 170.223 39.6886Z" fill="#2F2E41"/>
<path d="M152.618 81.1202L143.921 87.1678C143.921 87.1678 138.848 92.4897 142.471 92.4897C146.095 92.4897 147.545 87.8935 147.545 87.8935L158.658 83.0555L152.618 81.1202Z" fill="#FFB8B8"/>
<path d="M156.121 57.5346C156.121 57.5346 148.511 81.1203 150.927 82.3298C153.343 83.5393 158.657 84.265 158.657 84.265L156.121 57.5346Z" fill="#D0CDE1"/>
<path opacity="0.1" d="M156.121 57.5346C156.121 57.5346 148.511 81.1203 150.927 82.3298C153.343 83.5393 158.657 84.265 158.657 84.265L156.121 57.5346Z" fill="black"/>
<path d="M180.045 87.2888H162.914L175.085 81.1202C175.354 81.2944 175.611 81.4851 175.856 81.6911C177.661 83.2124 179.094 85.1272 180.045 87.2888Z" fill="#2F2E41"/>
<path d="M160.953 51.487C164.422 51.487 167.234 48.6711 167.234 45.1975C167.234 41.724 164.422 38.9081 160.953 38.9081C157.484 38.9081 154.671 41.724 154.671 45.1975C154.671 48.6711 157.484 51.487 160.953 51.487Z" fill="#FFB8B8"/>
<path d="M160.832 50.3985C160.832 50.3985 162.281 54.9946 160.832 56.688C159.382 58.3813 168.804 54.2689 168.804 54.2689C168.804 54.2689 165.422 49.4309 166.388 47.2537L160.832 50.3985Z" fill="#FFB8B8"/>
<path d="M174.747 71.3981L174.24 74.7098C174.24 74.7098 174.496 75.4621 174.807 76.5579C175.213 77.9876 175.713 80.0026 175.856 81.6911C176.003 83.4038 175.781 84.7827 174.723 84.8697C173.206 84.9955 172.416 85.9172 171.628 87.2888H154.152C154.198 86.534 154.253 85.7503 154.319 84.9447C154.355 84.4609 154.395 83.9707 154.439 83.474C154.488 82.9031 156.2 72.1796 154.913 69.8717C152.256 65.1064 155.638 62.3727 155.638 62.3727C155.638 62.3727 156.121 58.7441 156.121 57.5346C156.121 56.5863 159.832 55.4905 161.436 55.0599C161.54 55.0333 161.631 55.0067 161.716 54.9874C161.994 54.9148 162.16 54.8737 162.16 54.8737L163.429 54.3536C163.429 54.3536 166.992 53.6642 167.234 53.1803C167.388 52.9719 167.605 52.8178 167.852 52.7401C168.362 52.5224 169.012 52.3676 169.166 52.2127C169.387 51.9586 169.587 51.6867 169.763 51.3999C170.227 50.8682 170.851 50.5029 171.541 50.3597C174.136 49.7042 177.863 51.0032 177.863 51.0032L176.559 59.5303L174.747 71.3981Z" fill="#D0CDE1"/>
<path d="M182.333 66.1222L173.636 72.1698C173.636 72.1698 168.562 77.4917 172.186 77.4917C175.81 77.4917 177.259 72.8955 177.259 72.8955L188.372 68.0574L182.333 66.1222Z" fill="#FFB8B8"/>
<path d="M167.392 39.268L162.351 36.6243L159.189 37.1156C158.068 37.2897 157.026 37.797 156.198 38.5716C155.369 39.3463 154.792 40.3525 154.542 41.4596L153.95 44.0749L157.535 43.9368L158.537 41.5969V43.8982L160.191 43.8345L161.151 40.1092L161.751 44.0749L167.632 43.9547L167.392 39.268Z" fill="#2F2E41"/>
<path d="M176.172 51.487L177.863 51.0032C177.863 51.0032 195.016 58.0184 194.533 64.066C194.05 70.1136 194.774 70.1136 191.875 70.3555C188.976 70.5974 180.521 67.6946 180.762 67.2108C181.004 66.727 182.695 64.3079 182.695 64.3079L176.172 59.228V51.487Z" fill="#D0CDE1"/>
<path d="M167.234 46.1651C167.767 46.1651 168.2 45.7319 168.2 45.1975C168.2 44.6631 167.767 44.2299 167.234 44.2299C166.7 44.2299 166.267 44.6631 166.267 45.1975C166.267 45.7319 166.7 46.1651 167.234 46.1651Z" fill="#FFB8B8"/>
<path d="M0.0145264 60.6794V115.833H53.9741V60.6794H0.0145264ZM48.8647 99.6116H4.99925V65.4211H48.8647V99.6116Z" fill="#144480"/>
<path d="M24.1439 75.0577C25.4741 72.807 28.1059 72.7021 28.1059 72.7021C28.1059 72.7021 30.6704 72.3738 32.3156 75.8016C33.849 78.9966 35.9652 82.0815 32.6563 82.8294L32.0586 80.9666L31.6884 82.9681C31.2173 83.002 30.7447 83.0101 30.2726 82.9923C26.729 82.8777 23.3542 83.0258 23.4629 81.7525C23.6073 80.0599 22.8639 77.2233 24.1439 75.0577Z" fill="#2F2E41"/>
<path d="M33.2252 96.4297L37.7114 99.5492C37.7114 99.5492 40.3284 102.294 38.4591 102.294C36.5898 102.294 35.8421 99.9236 35.8421 99.9236L30.1097 97.4279L33.2252 96.4297Z" fill="#FFB8B8"/>
<path d="M31.4182 84.2633C31.4182 84.2633 35.3437 96.4297 34.0975 97.0536C32.8513 97.6775 30.1097 98.0518 30.1097 98.0518L31.4182 84.2633Z" fill="#D0CDE1"/>
<path opacity="0.1" d="M31.4182 84.2633C31.4182 84.2633 35.3437 96.4297 34.0975 97.0536C32.8513 97.6775 30.1097 98.0518 30.1097 98.0518L31.4182 84.2633Z" fill="black"/>
<path d="M19.0773 99.6116H27.9139L21.6357 96.4297C21.4972 96.5195 21.3645 96.6179 21.2381 96.7242C20.3072 97.5089 19.568 98.4966 19.0773 99.6116Z" fill="#2F2E41"/>
<path d="M28.9259 81.1438C30.7153 81.1438 32.1659 79.6912 32.1659 77.8994C32.1659 76.1076 30.7153 74.6551 28.9259 74.6551C27.1364 74.6551 25.6858 76.1076 25.6858 77.8994C25.6858 79.6912 27.1364 81.1438 28.9259 81.1438Z" fill="#FFB8B8"/>
<path d="M28.9882 80.5822C28.9882 80.5822 28.2405 82.9531 28.9882 83.8266C29.7359 84.7001 24.8758 82.5788 24.8758 82.5788C24.8758 82.5788 26.6204 80.0831 26.122 78.9601L28.9882 80.5822Z" fill="#FFB8B8"/>
<path d="M21.8102 91.4147L22.0719 93.1229C22.0719 93.1229 21.9398 93.511 21.779 94.0763C21.5207 94.9411 21.3397 95.8272 21.2382 96.7242C21.1622 97.6076 21.2768 98.3189 21.8226 98.3638C22.6052 98.4287 23.0127 98.9041 23.419 99.6116H32.4338C32.4102 99.2223 32.3815 98.818 32.3479 98.4025C32.3292 98.1529 32.3084 97.9 32.2855 97.6438C32.2606 97.3493 31.2596 91.8141 32.0413 90.6273C33.5892 88.2771 31.6674 86.759 31.6674 86.759C31.6674 86.759 31.4182 84.8873 31.4182 84.2633C31.4182 83.7742 29.5041 83.2089 28.6766 82.9868C28.623 82.9731 28.5757 82.9594 28.5321 82.9494C28.3887 82.912 28.3028 82.8907 28.3028 82.8907L27.6485 82.6225C27.6485 82.6225 25.8104 82.2668 25.6858 82.0173C25.6061 81.9097 25.4944 81.8302 25.3668 81.7901C25.1338 81.718 24.9071 81.627 24.6888 81.5181C24.575 81.387 24.472 81.2468 24.381 81.0989C24.142 80.8246 23.8199 80.6361 23.4638 80.5623C22.1254 80.2241 20.2026 80.8942 20.2026 80.8942L20.8755 85.2928L21.8102 91.4147Z" fill="#D0CDE1"/>
<path d="M17.8972 88.6931L22.3834 91.8127C22.3834 91.8127 25.0004 94.5579 23.1311 94.5579C21.2618 94.5579 20.5141 92.187 20.5141 92.187L14.7817 89.6914L17.8972 88.6931Z" fill="#FFB8B8"/>
<path d="M25.6043 74.8408L28.2044 73.477L29.8357 73.7305C30.4136 73.8203 30.9512 74.0819 31.3786 74.4815C31.8061 74.8811 32.1037 75.4002 32.2329 75.9713L32.5379 77.3203L30.6887 77.2491L30.172 76.0421V77.2292L29.3187 77.1963L28.8235 75.2747L28.514 77.3203L25.4805 77.2583L25.6043 74.8408Z" fill="#2F2E41"/>
<path d="M21.0749 81.1438L20.2026 80.8942C20.2026 80.8942 11.3547 84.5129 11.604 87.6325C11.8532 90.752 11.4794 90.752 12.9748 90.8768C14.4702 91.0016 18.8318 89.5042 18.7072 89.2546C18.5826 89.0051 17.7103 87.7573 17.7103 87.7573L21.0749 85.1368V81.1438Z" fill="#D0CDE1"/>
<path d="M25.6858 78.3986C25.9611 78.3986 26.1843 78.1751 26.1843 77.8994C26.1843 77.6238 25.9611 77.4003 25.6858 77.4003C25.4105 77.4003 25.1873 77.6238 25.1873 77.8994C25.1873 78.1751 25.4105 78.3986 25.6858 78.3986Z" fill="#FFB8B8"/>
<path d="M145.152 88.3138C144.43 89.5887 143.301 91.1326 142.224 92.0286L144.374 91.6219C142.14 103.197 136.277 113.757 127.638 121.766C118.998 129.775 108.033 134.816 96.3356 136.157C84.6383 137.497 72.819 135.067 62.5958 129.219C52.3727 123.372 44.2787 114.411 39.4906 103.641L41.6771 103.548C40.4251 102.92 38.9749 101.674 37.9828 100.596C38.0334 102.061 37.8765 103.968 37.4262 105.295L39.0439 103.826C43.8723 114.694 52.037 123.735 62.3507 129.636C72.6644 135.537 84.5892 137.99 96.3908 136.638C108.192 135.285 119.255 130.198 127.971 122.116C136.686 114.034 142.6 103.379 144.851 91.7004L146.76 92.7634C146.02 91.5732 145.435 89.7515 145.152 88.3138Z" fill="#F7B643"/>
<path d="M195.936 87.913C195.887 87.8326 194.728 85.895 194.327 81.8715C193.958 78.1802 194.195 71.9582 197.418 63.279C203.523 46.8369 196.011 33.5705 195.934 33.4384L196.304 33.2231C196.324 33.2566 198.262 36.639 199.407 42.025C200.92 49.1656 200.369 56.5902 197.819 63.4285C191.725 79.8426 196.256 87.6128 196.302 87.6895L195.936 87.913Z" fill="#144480"/>
<path d="M193.549 32.4729C195.087 32.4729 196.333 31.2248 196.333 29.6851C196.333 28.1454 195.087 26.8972 193.549 26.8972C192.011 26.8972 190.765 28.1454 190.765 29.6851C190.765 31.2248 192.011 32.4729 193.549 32.4729Z" fill="#F7B643"/>
<path d="M202.33 42.7665C203.868 42.7665 205.114 41.5184 205.114 39.9787C205.114 38.439 203.868 37.1908 202.33 37.1908C200.792 37.1908 199.546 38.439 199.546 39.9787C199.546 41.5184 200.792 42.7665 202.33 42.7665Z" fill="#144480"/>
<path d="M196.333 49.629C197.871 49.629 199.117 48.3808 199.117 46.8411C199.117 45.3014 197.871 44.0533 196.333 44.0533C194.796 44.0533 193.549 45.3014 193.549 46.8411C193.549 48.3808 194.796 49.629 196.333 49.629Z" fill="#F7B643"/>
<path d="M203.615 55.4191C205.153 55.4191 206.399 54.1709 206.399 52.6313C206.399 51.0916 205.153 49.8434 203.615 49.8434C202.077 49.8434 200.831 51.0916 200.831 52.6313C200.831 54.1709 202.077 55.4191 203.615 55.4191Z" fill="#F7B643"/>
<path d="M194.192 64.426C195.729 64.426 196.976 63.1779 196.976 61.6382C196.976 60.0985 195.729 58.8503 194.192 58.8503C192.654 58.8503 191.407 60.0985 191.407 61.6382C191.407 63.1779 192.654 64.426 194.192 64.426Z" fill="#144480"/>
<path d="M197.618 88.0156C197.618 88.0156 194.834 81.1532 203.187 76.0063L197.618 88.0156Z" fill="#144480"/>
<path d="M194.194 87.8911C194.194 87.8911 192.927 80.5935 183.12 80.656L194.194 87.8911Z" fill="#144480"/>
<path d="M11.9816 100.579C12.0051 100.54 12.5598 99.6128 12.7521 97.687C12.9285 95.9202 12.8151 92.9421 11.2726 88.788C8.35055 80.9181 11.9461 74.5683 11.9828 74.5051L11.8054 74.402C11.1131 75.7286 10.613 77.1472 10.3202 78.615C9.59605 82.0328 9.85976 85.5864 11.0804 88.8595C13.9975 96.7159 11.8288 100.435 11.8066 100.472L11.9816 100.579Z" fill="#144480"/>
<path d="M13.1241 74.043C13.8601 74.043 14.4568 73.4456 14.4568 72.7086C14.4568 71.9717 13.8601 71.3742 13.1241 71.3742C12.3882 71.3742 11.7915 71.9717 11.7915 72.7086C11.7915 73.4456 12.3882 74.043 13.1241 74.043Z" fill="#F7B643"/>
<path d="M8.92131 78.9699C9.65729 78.9699 10.2539 78.3725 10.2539 77.6355C10.2539 76.8986 9.65729 76.3011 8.92131 76.3011C8.18533 76.3011 7.5887 76.8986 7.5887 77.6355C7.5887 78.3725 8.18533 78.9699 8.92131 78.9699Z" fill="#144480"/>
<path d="M11.7916 82.2545C12.5276 82.2545 13.1242 81.6571 13.1242 80.9202C13.1242 80.1832 12.5276 79.5858 11.7916 79.5858C11.0556 79.5858 10.459 80.1832 10.459 80.9202C10.459 81.6571 11.0556 82.2545 11.7916 82.2545Z" fill="#F7B643"/>
<path d="M8.30626 85.0259C9.04224 85.0259 9.63887 84.4285 9.63887 83.6916C9.63887 82.9546 9.04224 82.3572 8.30626 82.3572C7.57028 82.3572 6.97365 82.9546 6.97365 83.6916C6.97365 84.4285 7.57028 85.0259 8.30626 85.0259Z" fill="#F7B643"/>
<path d="M12.8166 89.337C13.5526 89.337 14.1492 88.7396 14.1492 88.0026C14.1492 87.2656 13.5526 86.6682 12.8166 86.6682C12.0807 86.6682 11.484 87.2656 11.484 88.0026C11.484 88.7396 12.0807 89.337 12.8166 89.337Z" fill="#144480"/>
<path d="M11.1765 100.628C11.1765 100.628 12.5091 97.3432 8.51131 94.8798L11.1765 100.628Z" fill="#144480"/>
<path d="M12.8154 100.568C12.8154 100.568 13.4219 97.0753 18.116 97.1053L12.8154 100.568Z" fill="#144480"/>
</g>
<defs>
<clipPath id="clip0_53_400">
<rect width="217" height="137" fill="white"/>
</clipPath>
</defs>
</svg>
