<svg width="18" height="18" viewBox="0 0 18 18" fill="none" xmlns="http://www.w3.org/2000/svg">
<path d="M1.8315 12.1311C1.81074 12.2865 1.80021 12.4432 1.8 12.6C1.8 14.7402 3.7242 16.4556 5.8689 16.1676C6.4926 17.2782 7.6806 18 9 18C10.3194 18 11.5074 17.2782 12.1311 16.1676C14.2713 16.4556 16.2 14.7402 16.2 12.6C16.2 12.4443 16.1892 12.2877 16.1685 12.1311C17.2782 11.5074 18 10.3185 18 9C18 7.6815 17.2782 6.4926 16.1685 5.8689C16.1892 5.7123 16.2 5.5557 16.2 5.4C16.2 3.2598 14.2713 1.5408 12.1311 1.8324C11.5074 0.7218 10.3194 0 9 0C7.6806 0 6.4926 0.7218 5.8689 1.8324C3.7242 1.5408 1.8 3.2598 1.8 5.4C1.8 5.5557 1.8108 5.7123 1.8315 5.8689C0.7218 6.4926 0 7.6815 0 9C0 10.3185 0.7218 11.5074 1.8315 12.1311ZM3.1293 7.2684L4.1211 7.0047L3.7305 6.057C3.64483 5.84853 3.60051 5.62539 3.6 5.4C3.6 4.4073 4.4073 3.6 5.4 3.6C5.6223 3.6 5.8491 3.645 6.057 3.7305L7.0056 4.1211L7.2693 3.1293C7.37087 2.74785 7.59561 2.41064 7.90859 2.17009C8.22157 1.92954 8.60526 1.79912 9 1.79912C9.39474 1.79912 9.77843 1.92954 10.0914 2.17009C10.4044 2.41064 10.6291 2.74785 10.7307 3.1293L10.9944 4.1211L11.943 3.7305C12.1509 3.645 12.3777 3.6 12.6 3.6C13.5927 3.6 14.4 4.4073 14.4 5.4C14.4 5.6223 14.355 5.85 14.2695 6.057L13.8789 7.0047L14.8707 7.2684C15.2513 7.37123 15.5873 7.59656 15.827 7.90956C16.0666 8.22256 16.1965 8.60579 16.1965 9C16.1965 9.39421 16.0666 9.77744 15.827 10.0904C15.5873 10.4034 15.2513 10.6288 14.8707 10.7316L13.8789 10.9953L14.2695 11.943C14.355 12.15 14.4 12.3777 14.4 12.6C14.4 13.5927 13.5927 14.4 12.6 14.4C12.3777 14.4 12.1509 14.355 11.943 14.2695L10.9944 13.8789L10.7307 14.8707C10.6291 15.2522 10.4044 15.5894 10.0914 15.8299C9.77843 16.0705 9.39474 16.2009 9 16.2009C8.60526 16.2009 8.22157 16.0705 7.90859 15.8299C7.59561 15.5894 7.37087 15.2522 7.2693 14.8707L7.0056 13.8789L6.057 14.2695C5.84851 14.3551 5.62538 14.3994 5.4 14.4C4.4073 14.4 3.6 13.5927 3.6 12.6C3.6 12.3777 3.645 12.15 3.7305 11.943L4.1211 10.9953L3.1293 10.7316C2.74874 10.6288 2.41265 10.4034 2.173 10.0904C1.93335 9.77744 1.80349 9.39421 1.80349 9C1.80349 8.60579 1.93335 8.22256 2.173 7.90956C2.41265 7.59656 2.74874 7.37123 3.1293 7.2684Z" fill="currentColor"/>
<path d="M12.3674 7.83897L11.1002 6.56097L8.10227 9.53007L6.93587 8.36367L5.66327 9.63627L8.09687 12.0699L12.3674 7.83897Z" fill="currentColor"/>
</svg>
