<svg width="24" height="24" viewBox="0 0 24 24" fill="none" xmlns="http://www.w3.org/2000/svg">
<path d="M21 12.5447V11.4611C21.0002 11.1174 20.8791 10.7846 20.658 10.5214C20.437 10.2581 20.1301 10.0813 19.7915 10.0221L18.8098 9.84918C18.6872 9.45795 18.531 9.07805 18.3429 8.71374L18.9193 7.89721C19.1171 7.61577 19.2092 7.27353 19.1793 6.93083C19.1494 6.58813 18.9995 6.26699 18.756 6.02402L17.9875 5.25552C17.745 5.01015 17.4235 4.85855 17.0799 4.8276C16.7363 4.79666 16.3929 4.88836 16.1105 5.08646L15.2939 5.66282C14.9292 5.4726 14.5487 5.31447 14.1566 5.1902L13.9837 4.20845C13.9244 3.86987 13.7476 3.56304 13.4844 3.34198C13.2212 3.12093 12.8884 2.99983 12.5447 3H11.4611C11.1174 2.99983 10.7846 3.12093 10.5214 3.34198C10.2581 3.56304 10.0813 3.86987 10.0221 4.20845L9.84918 5.1902C9.45774 5.31459 9.07783 5.47272 8.71374 5.66282L7.89721 5.08646C7.61577 4.88866 7.27353 4.79658 6.93083 4.82646C6.58813 4.85633 6.26699 5.00624 6.02402 5.24976L5.25552 6.01825C5.00966 6.26085 4.85775 6.58275 4.8268 6.92676C4.79584 7.27078 4.88784 7.61462 5.08646 7.89721L5.66282 8.71374C5.47267 9.07847 5.31454 9.45902 5.1902 9.8511L4.20845 10.024C3.86987 10.0833 3.56304 10.2601 3.34198 10.5233C3.12093 10.7865 2.99983 11.1193 3 11.463V12.5447C2.99983 12.8884 3.12093 13.2212 3.34198 13.4844C3.56304 13.7476 3.86987 13.9244 4.20845 13.9837L5.1902 14.1566C5.31453 14.548 5.47267 14.928 5.66282 15.292L5.08646 16.1085C4.88866 16.39 4.79658 16.7322 4.82646 17.0749C4.85633 17.4176 5.00624 17.7388 5.24976 17.9817L6.01825 18.7502C6.26102 18.9941 6.58221 19.1442 6.92501 19.1741C7.26782 19.204 7.61014 19.1117 7.89145 18.9135L8.70797 18.3372C9.07271 18.5273 9.45326 18.6855 9.84534 18.8098L10.0183 19.7915C10.0775 20.1301 10.2543 20.437 10.5175 20.658C10.7807 20.8791 11.1135 21.0002 11.4573 21H12.5389C12.8826 21.0002 13.2154 20.8791 13.4786 20.658C13.7419 20.437 13.9187 20.1301 13.9779 19.7915L14.1508 18.8098C14.544 18.6876 14.9259 18.5314 15.292 18.3429L16.1085 18.9193C16.39 19.1171 16.7322 19.2092 17.0749 19.1793C17.4176 19.1494 17.7388 18.9995 17.9817 18.756L18.7502 17.9875C18.9956 17.745 19.1472 17.4235 19.1782 17.0799C19.2091 16.7363 19.1174 16.3929 18.9193 16.1105L18.3429 15.2939C18.5324 14.9291 18.6899 14.5486 18.8136 14.1566L19.7954 13.9837C20.1333 13.9236 20.4392 13.7465 20.6595 13.4833C20.8798 13.2202 21.0003 12.8878 21 12.5447ZM20.0394 12.5447C20.0397 12.6627 19.9982 12.7771 19.9223 12.8675C19.8463 12.9579 19.7408 13.0184 19.6244 13.0384L18.3429 13.2613C18.2523 13.2764 18.168 13.3173 18.0999 13.3789C18.0318 13.4405 17.9828 13.5204 17.9587 13.609C17.8225 14.1222 17.6203 14.6156 17.3573 15.0768C17.3106 15.157 17.288 15.2491 17.2924 15.3418C17.2969 15.4346 17.3281 15.5241 17.3823 15.5994L18.1278 16.6599C18.1953 16.7564 18.2267 16.8736 18.2166 16.9909C18.2064 17.1082 18.1552 17.2182 18.072 17.3016L17.3036 18.0701C17.2202 18.1533 17.1102 18.2044 16.9928 18.2146C16.8755 18.2248 16.7583 18.1934 16.6619 18.1258L15.5994 17.3823C15.5241 17.3281 15.4346 17.2969 15.3418 17.2924C15.2491 17.288 15.157 17.3106 15.0768 17.3573C14.6143 17.6243 14.119 17.8297 13.6033 17.9683C13.5146 17.9924 13.4348 18.0414 13.3731 18.1095C13.3115 18.1776 13.2707 18.262 13.2555 18.3525L13.0327 19.6282C13.0123 19.7444 12.9517 19.8498 12.8614 19.9257C12.771 20.0016 12.6569 20.0432 12.5389 20.0432H11.4611C11.3431 20.0432 11.229 20.0016 11.1386 19.9257C11.0483 19.8498 10.9877 19.7444 10.9673 19.6282L10.7445 18.3429C10.7293 18.2523 10.6885 18.168 10.6269 18.0999C10.5652 18.0318 10.4854 17.9828 10.3967 17.9587C9.88355 17.8225 9.39017 17.6203 8.92891 17.3573C8.84977 17.3119 8.75931 17.2899 8.66812 17.294C8.57693 17.298 8.48879 17.328 8.41402 17.3804L7.35351 18.1239C7.25703 18.1915 7.13986 18.2229 7.02253 18.2127C6.9052 18.2025 6.7952 18.1514 6.71182 18.0682L5.94332 17.2997C5.86016 17.2163 5.809 17.1063 5.79881 16.989C5.78863 16.8717 5.82006 16.7545 5.88761 16.658L6.62344 15.5994C6.67767 15.5241 6.70889 15.4346 6.71332 15.3418C6.71775 15.2491 6.69521 15.157 6.64841 15.0768C6.38149 14.6143 6.17611 14.119 6.03746 13.6033C6.01337 13.5146 5.96437 13.4348 5.89626 13.3731C5.82816 13.3115 5.74381 13.2707 5.65322 13.2555L4.37752 13.0327C4.26115 13.0127 4.15562 12.9521 4.07966 12.8617C4.00369 12.7713 3.9622 12.657 3.96254 12.5389V11.4611C3.9622 11.343 4.00369 11.2286 4.07966 11.1383C4.15562 11.0479 4.26115 10.9873 4.37752 10.9673L5.66282 10.7445C5.75342 10.7293 5.83777 10.6885 5.90587 10.6269C5.97397 10.5652 6.02298 10.4854 6.04707 10.3967C6.18315 9.8835 6.38529 9.3901 6.64841 8.92891C6.69521 8.84872 6.71775 8.75667 6.71332 8.66393C6.70889 8.57118 6.67767 8.48171 6.62344 8.40634L5.87992 7.34582C5.81238 7.24935 5.78094 7.13218 5.79113 7.01485C5.80132 6.89752 5.85248 6.78752 5.93564 6.70413L6.70413 5.93564C6.78732 5.85213 6.89737 5.80074 7.0148 5.79054C7.13223 5.78035 7.24948 5.81201 7.34582 5.87992L8.40634 6.62344C8.4813 6.6762 8.5698 6.70641 8.66138 6.71049C8.75295 6.71458 8.84379 6.69237 8.92315 6.64649C9.38573 6.37971 9.88109 6.17433 10.3967 6.03554C10.4854 6.01145 10.5652 5.96245 10.6269 5.89434C10.6885 5.82624 10.7293 5.74189 10.7445 5.6513L10.9673 4.3756C10.9873 4.25923 11.0479 4.1537 11.1383 4.07774C11.2286 4.00177 11.343 3.96027 11.4611 3.96061H12.5427C12.6608 3.96027 12.7752 4.00177 12.8656 4.07774C12.956 4.1537 13.0165 4.25923 13.0365 4.3756L13.2613 5.66282C13.2764 5.75342 13.3173 5.83777 13.3789 5.90587C13.4405 5.97397 13.5204 6.02298 13.609 6.04707C14.1223 6.18313 14.6157 6.38527 15.0768 6.64841C15.157 6.69521 15.2491 6.71775 15.3418 6.71332C15.4346 6.70889 15.5241 6.67767 15.5994 6.62344L16.6599 5.87992C16.7564 5.81238 16.8736 5.78094 16.9909 5.79113C17.1082 5.80132 17.2182 5.85248 17.3016 5.93564L18.0701 6.70413C18.1533 6.78752 18.2044 6.89752 18.2146 7.01485C18.2248 7.13218 18.1934 7.24935 18.1258 7.34582L17.3823 8.40634C17.3281 8.48171 17.2969 8.57118 17.2924 8.66393C17.288 8.75667 17.3106 8.84872 17.3573 8.92891C17.6241 9.39149 17.8295 9.88685 17.9683 10.4025C17.9924 10.4911 18.0414 10.571 18.1095 10.6326C18.1776 10.6943 18.262 10.7351 18.3525 10.7502L19.6282 10.9731C19.7446 10.9931 19.8501 11.0536 19.9261 11.144C20.0021 11.2344 20.0436 11.3488 20.0432 11.4669L20.0394 12.5447ZM12.0029 11.8108C12.4315 11.8051 12.8489 11.6727 13.2025 11.4304C13.5561 11.188 13.8301 10.8465 13.9901 10.4487C14.15 10.051 14.1887 9.61482 14.1014 9.19513C14.014 8.77544 13.8044 8.39098 13.499 8.09012C13.1936 7.78927 12.8061 7.58546 12.3851 7.50437C11.9642 7.42327 11.5286 7.46849 11.1333 7.63436C10.738 7.80022 10.4006 8.07931 10.1636 8.43649C9.92653 8.79368 9.80043 9.213 9.80115 9.64169C9.80673 10.2209 10.0415 10.7743 10.4542 11.1808C10.8668 11.5873 11.4237 11.8138 12.0029 11.8108ZM12.0029 8.42747C12.2413 8.43314 12.4728 8.50903 12.6684 8.64564C12.8639 8.78225 13.0148 8.97351 13.1021 9.19546C13.1895 9.41742 13.2094 9.66022 13.1594 9.89345C13.1095 10.1267 12.9918 10.34 12.8212 10.5067C12.6505 10.6733 12.4345 10.786 12.2002 10.8305C11.9658 10.8749 11.7236 10.8493 11.5037 10.7568C11.2839 10.6642 11.0962 10.5089 10.9642 10.3102C10.8323 10.1115 10.7618 9.8783 10.7618 9.63977C10.7668 9.31517 10.9003 9.00579 11.1328 8.77932C11.3654 8.55285 11.6783 8.42772 12.0029 8.43132V8.42747ZM15.9068 14.1912V15.6013C15.9068 15.7287 15.8562 15.8509 15.7661 15.941C15.6761 16.031 15.5539 16.0817 15.4265 16.0817C15.2991 16.0817 15.177 16.031 15.0869 15.941C14.9968 15.8509 14.9462 15.7287 14.9462 15.6013V14.195C14.9427 13.9264 14.8334 13.6701 14.642 13.4816C14.4507 13.2932 14.1927 13.1878 13.9241 13.1883H13.5648L12.5043 14.2315C12.3701 14.3622 12.1902 14.4354 12.0029 14.4354C11.8155 14.4354 11.6356 14.3622 11.5014 14.2315L10.4409 13.1883H10.0817C9.81174 13.1852 9.5516 13.2892 9.35823 13.4776C9.16485 13.6659 9.054 13.9232 9.04995 14.1931V15.6033C9.04995 15.7307 8.99935 15.8528 8.90927 15.9429C8.8192 16.033 8.69703 16.0836 8.56964 16.0836C8.44226 16.0836 8.32009 16.033 8.23002 15.9429C8.13994 15.8528 8.08934 15.7307 8.08934 15.6033V14.195C8.09289 13.67 8.30474 13.1679 8.67831 12.799C9.05189 12.4301 9.55664 12.2246 10.0817 12.2277H10.6273C10.7531 12.2279 10.8739 12.2776 10.9635 12.366L12.0029 13.3785L13.0327 12.366C13.1223 12.2776 13.243 12.2279 13.3689 12.2277H13.9241C14.4475 12.2271 14.9497 12.4338 15.3212 12.8024C15.6927 13.171 15.9033 13.6717 15.9068 14.195V14.1912Z" fill="currentColor"/>
</svg>
